<svg t="1781759042422" class="icon" viewBox="0 0 1024 1024" version="1.1" xmlns="http://www.w3.org/2000/svg" width="200" height="200"><path d="M261.12 272c13.056 4.864 21.632 10.688 25.088 20.864 4.992 14.912-10.432 25.6-19.2 29.248a55.936 55.936 0 0 1-5.888 1.92zM217.6 155.52v57.28a41.856 41.856 0 0 1-19.2-14.72 26.88 26.88 0 0 1-0.64-29.44c4.416-6.4 11.52-10.56 19.84-13.12zM239.36 0a239.36 239.36 0 1 0 0 478.72 239.36 239.36 0 0 0 0-478.72z m88.064 279.04c11.2 33.408-7.36 68.48-44.096 83.392a102.528 102.528 0 0 1-22.208 6.08v1.408a21.76 21.76 0 0 1-43.52 0v-3.136a118.272 118.272 0 0 1-20.992-6.976c-25.984-11.52-45.12-31.168-53.824-55.296a21.76 21.76 0 1 1 40.896-14.784c4.608 12.672 15.744 23.68 30.592 30.336l3.328 1.28v-62.272c-21.312-6.656-42.496-16.384-55.936-37.568-15.488-24.32-15.36-54.72 0.192-77.504 13.44-19.456 34.304-29.376 55.744-33.152V108.8a21.76 21.76 0 0 1 43.52 0v1.856c0.576 0.064 62.912 7.36 75.264 63.232 2.56 11.712-3.136 23.68-14.656 27.072a21.76 21.76 0 0 1-27.072-14.592c-3.968-13.44-18.112-26.112-33.536-31.104v70.976c26.624 7.808 55.296 19.84 66.304 52.736zM783.36 0a239.36 239.36 0 1 0 0 478.72 239.36 239.36 0 0 0 0-478.72z m93.248 144l-58.24 73.6h30.272a21.76 21.76 0 0 1 0 43.52h-43.52v21.76h43.52a21.76 21.76 0 0 1 0 43.52h-43.52v21.76a21.76 21.76 0 0 1-43.52 0V326.4h-43.52a21.76 21.76 0 0 1 0-43.52h43.52v-21.76h-43.52a21.76 21.76 0 0 1 0-43.52h28.288l-56.448-73.792a21.76 21.76 0 0 1 34.56-26.432l57.856 75.648 60.16-75.968a21.76 21.76 0 1 1 34.112 27.008zM783.36 544a239.36 239.36 0 1 0 0 478.72 239.36 239.36 0 0 0 0-478.72z m40.384 369.92c-55.68 0-103.68-31.296-125.568-76.16h-23.616a21.76 21.76 0 0 1 0-43.52h11.52a122.048 122.048 0 0 1-0.64-10.88c0-3.648 0.256-7.296 0.64-10.88h-11.52a21.76 21.76 0 0 1 0-43.52h23.68c21.888-44.864 69.824-76.16 125.504-76.16 8.576 0 17.728-0.384 25.344 4.416a22.144 22.144 0 0 1 9.728 20.416 20.48 20.48 0 0 1-13.76 17.536c-6.912 2.112-14.208 1.152-21.312 1.152-29.824 0-56.512 12.8-73.856 32.64h55.232a21.76 21.76 0 0 1 0 43.52h-75.328a80.704 80.704 0 0 0-0.832 10.88c0 3.712 0.32 7.296 0.832 10.88h75.328a21.76 21.76 0 0 1 0 43.52h-55.232c17.344 19.84 44.032 32.64 73.856 32.64 8 0 16-1.152 23.552 2.368a20.992 20.992 0 0 1 11.52 16.256 19.456 19.456 0 0 1-5.312 16.768c-7.616 7.488-19.712 8.128-29.76 8.128zM239.36 544a239.36 239.36 0 1 0 0 478.72 239.36 239.36 0 0 0 0-478.72z m65.28 369.92h-108.8a21.76 21.76 0 0 1-15.872-36.672c10.688-11.392 18.048-24.256 19.2-33.664 0.96-8.448-0.064-17.792-1.92-27.584H174.08a21.76 21.76 0 0 1 0-43.52h13.184c-6.016-29.184-7.872-62.08 16.64-91.904 25.088-30.72 72-36.864 111.488-14.4a21.76 21.76 0 0 1-21.504 37.824c-17.536-9.984-43.2-11.904-56.32 4.16-14.208 17.28-12.224 36.48-5.76 64.32h29.312a21.76 21.76 0 0 1 0 43.52h-19.712c1.6 10.752 2.24 21.696 0.96 32.768a79.36 79.36 0 0 1-5.952 21.632H304.64a21.76 21.76 0 0 1 0 43.52z" fill="#323232"/></svg>
