<svg viewBox="0 0 24 24" width="48" height="48" xmlns="http://www.w3.org/2000/svg">
  <defs>
    <mask id="mortgage-house-mask">
      <rect width="24" height="24" fill="white" />
      <path fill="black" d="M 9.5 9 L 10.8 9 L 12 11.5 L 13.2 9 L 14.5 9 L 12.6 13 V 14 H 14.5 V 15 H 12.6 V 16 H 14.5 V 17 H 12.6 V 18.5 H 11.4 V 17 H 9.5 V 16 H 11.4 V 15 H 9.5 V 14 H 11.4 V 13 Z" />
    </mask>
  </defs>
  <path fill="#333333" mask="url(#mortgage-house-mask)" d="M 12 2.5 C 11.5 2.5 11 2.7 10.6 3 L 3.6 8.5 C 3 9 3.2 10 4 10 H 5.5 V 19 C 5.5 20.1 6.4 21 7.5 21 H 16.5 C 17.6 21 18.5 20.1 18.5 19 V 10 H 20 C 20.8 10 21 9 20.4 8.5 L 13.4 3 C 13 2.7 12.5 2.5 12 2.5 Z" />
</svg>