<svg t="1781773293432" class="icon" viewBox="0 0 1131 1024" version="1.1" xmlns="http://www.w3.org/2000/svg" width="200" height="200"><path d="M861.507 551.316c119 0 215.58 96.607 215.58 215.58 0 118.999-96.58 215.578-215.58 215.578-118.972 0-215.579-96.58-215.579-215.579 0-118.972 96.607-215.579 215.58-215.579zM196.096 909.204c-0.243 0.054-48.829 10.617-48.829-53.975V628.547l9.755-10.779c16.789-18.54 285.562-307.63 361.203-389.012a27.055 27.055 0 0 1 39.424-0.054c47.912 51.146 172.975 184.374 261.901 276.723-130.344 16.195-231.343 127.46-231.343 262.17 0 52.09 15.09 100.65 41.176 141.61H196.096z m646.225-64.997v57.371h65.428v-57.667h68.285v-38.346h-68.07v-38.481h68.016v-38.4h-39.532c20.642-18.702 40.448-46.269 59.688-63.73l-35.624-32.31c-27.998 25.357-56.347 60.712-85.235 86.905-28.618-25.95-57.209-61.494-85.557-87.202l-36.056 32.472c19.914 18.027 39.882 45.756 60.147 64.134h-38.643v38.4h66.695v38.481h-66.776v38.373h67.234z m84.103-330.294L559.184 158.64a26.947 26.947 0 0 0-37.537 0.054c-72.192 70.225-331.237 322.21-389.901 380.901-11.21 11.21-29.292 9.755-29.292 9.755-39.074-9.755-68.366-29.292-29.319-68.365 42.658-34.116 368.478-343.957 450.237-421.78a26.92 26.92 0 0 1 37.106 0c81.732 77.823 407.552 387.664 450.21 421.78 25.654 34.196 13.878 53.436-15.63 64.242a262.98 262.98 0 0 0-68.634-31.313z" fill="#323232"/></svg>
