<svg t="1780833631599" class="icon" viewBox="0 0 1115 1024" version="1.1" xmlns="http://www.w3.org/2000/svg" width="200" height="200"><path d="M691.712 985.6c-18.432 0-33.28-14.848-33.28-33.28-0.512-16.384 9.216-34.816 37.888-37.376 25.088-4.608 46.08-8.704 71.68-17.408l1.024-0.512c27.136-12.288 50.688-31.232 69.12-54.784v-0.512l0.512-0.512 2.048-1.024c26.624-32.768 44.544-66.048 53.248-98.304l1.536-8.192 0.512-2.56 1.024-5.632c2.56-14.848 5.12-28.672 5.12-44.544v-2.048-7.68c-0.512-2.048-0.512-4.096-1.024-6.656l-36.352 44.544c-8.192 9.216-17.408 13.312-26.624 13.312-4.608 0-9.216-1.024-13.824-3.072-10.24-5.632-16.384-12.288-18.432-22.016-2.56-11.776 3.584-22.528 6.656-26.624l0.512-0.512h0.512l87.04-108.032c2.048-2.048 20.992-20.48 40.96-20.48 24.576 0 39.424 18.944 46.08 30.208l78.336 112.64c0.512 0.512 12.8 18.944-9.728 42.496-6.144 7.168-14.848 11.264-24.576 11.776-6.656 0-13.312-2.56-18.432-7.168l-41.984-55.808v13.824c0 62.464-20.992 123.392-62.976 180.224-40.96 51.712-88.576 85.504-145.408 104.448-2.048 1.024-5.632 2.048-13.824 4.096l-4.096 1.024c-8.192 3.072-26.112 4.608-53.248 6.144zM169.984 482.816c-32.256 0-46.592-31.232-47.104-31.744L49.152 335.36c-0.512-0.512-12.8-18.944 9.728-41.984 8.704-8.192 16.896-11.776 24.576-11.776 10.752 0 17.408 6.144 18.432 7.168L143.36 343.552v-4.096c0.512-25.6 3.584-51.712 8.704-77.824 12.288-49.664 39.936-96.768 84.992-143.872 43.52-40.448 93.184-66.048 144.384-74.24 17.92-4.608 35.328-4.608 54.272-4.608 10.752 0 16.896 13.824 17.408 27.648 0.512 9.216-0.512 38.912-37.888 43.008l-2.048 0.512h-0.512c-19.968 4.096-40.96 8.192-60.928 16.384-38.912 15.872-68.608 39.936-96.768 78.336l-4.608 6.656c-14.848 21.504-25.6 45.568-31.232 71.168l-0.512 3.072-0.512 1.536-0.512 0.512h0.512c-1.024 4.096-5.12 27.136-5.12 52.224V355.84l33.28-39.936c8.192-9.216 17.408-13.312 26.624-13.312 4.608 0 9.216 1.024 13.824 3.072 10.24 5.12 16.384 12.288 18.432 20.992 1.536 9.216-1.024 18.944-6.656 26.624l-87.04 108.544c-3.584 3.584-22.016 20.992-41.472 20.992z" fill="#FF6900" stroke="#FF6900" stroke-width="20"/><path d="M424.96 571.904H176.128c-72.192 0-130.56 60.416-130.56 134.656v144.896c0 73.216 57.856 133.632 129.536 134.144l249.856 0.512c72.192 0 130.56-60.416 130.56-134.656V706.56c0-74.24-58.368-134.656-130.56-134.656z m51.712 279.04c0 30.208-23.552 54.272-52.736 54.272H176.128c-29.184 0-52.736-24.576-52.736-54.272v-144.896c0-30.208 23.552-54.272 52.736-54.272h247.808c29.184 0 52.736 24.576 52.736 54.272v144.896zM938.496 38.4h-247.808c-72.192 0-130.56 60.416-130.56 134.656V317.44c0 73.728 57.856 134.144 129.536 134.656l249.344 0.512c72.192 0 130.56-60.416 130.56-134.656V173.056c0-74.24-58.88-134.656-131.072-134.656zM991.232 317.44c0 30.208-23.552 54.272-52.736 54.272h-247.808c-29.184 0-52.736-24.576-52.736-54.272V173.056c0-30.208 23.552-54.272 52.224-54.272h248.32c29.184 0 52.736 24.576 52.736 54.272V317.44z" fill="#FF6900" stroke="#FF6900" stroke-width="20"/></svg>