<svg t="1781772777605" class="icon" viewBox="0 0 1024 1024" version="1.1" xmlns="http://www.w3.org/2000/svg" width="200" height="200"><path d="M408.128 629.888h2.432c12.032 0.384 23.936 1.92 35.584 4.672l10.56 2.752 141.44 42.24c29.248 8.64 46.4 38.976 38.784 68.48a58.368 58.368 0 0 1-14.08 25.664l-0.896 0.96a58.24 58.24 0 0 1-52.224 16.448l-106.304-19.84L448 768.448a20.48 20.48 0 0 0-7.488 0l2.048-0.32a20.416 20.416 0 0 0-3.2 0.512l1.152-0.192a20.48 20.48 0 0 0-3.328 0.896l2.24-0.64a20.48 20.48 0 0 0-3.712 1.28l1.472-0.64a20.608 20.608 0 0 0-3.328 1.536l1.92-0.896a20.608 20.608 0 0 0-3.072 1.664l1.152-0.768a20.48 20.48 0 0 0-9.408 12.16 17.216 17.216 0 0 0 11.84 21.248l1.408 0.384 83.712 16.256a264.96 264.96 0 0 0 190.336-35.072l119.04-73.92a42.432 42.432 0 0 1 57.472 12.16c12.992 18.944 9.344 44.736-8.448 59.264l-130.304 107.136a305.6 305.6 0 0 1-255.872 63.168l-110.4-22.784a179.776 179.776 0 0 0-65.408-1.344l-137.6 22.464A44.992 44.992 0 0 1 128 907.52v-151.808c0-18.624 11.392-35.328 28.672-42.112l183.488-71.424a179.84 179.84 0 0 1 11.072-3.84l-11.072 3.84a179.84 179.84 0 0 1 67.968-12.16z m55.296 141.44l79.552 14.72a366.08 366.08 0 0 1-75.072-5.248 24.384 24.384 0 0 0-2.56-6.592l-1.92-2.944z m218.88-20.48l-0.32 2.24a357.632 357.632 0 0 1-26.752 11.136c9.28-3.776 18.368-8.256 27.136-13.312zM530.88 64a360.32 360.32 0 0 1 338.048 236.288 361.728 361.728 0 0 1-104.32 399.68l-76.544 47.552a116.736 116.736 0 0 1-5.632 3.392 102.08 102.08 0 0 0-64.448-112.32l-6.912-2.368-45.696-13.568a35.904 35.904 0 0 0 2.816-9.664l0.384-5.248v-57.664h99.072l4.48-0.256a36.096 36.096 0 0 0 0-71.68l-4.48-0.256H568.512v-63.232h99.072l4.48-0.256a36.096 36.096 0 0 0 31.232-30.912l0.32-4.992-0.256-4.48a36.096 36.096 0 0 0-30.848-31.232l-4.928-0.32H589.696l113.92-114.368 3.52-4.032a36.16 36.16 0 0 0-3.52-47.04 35.968 35.968 0 0 0-46.912-3.456l-4.096 3.52L532.48 297.6 412.16 177.088l-4.032-3.52a35.968 35.968 0 0 0-42.88 0l-4.096 3.456-3.456 4.096a36.16 36.16 0 0 0 0 42.944l3.456 4.096L475.2 342.4H397.312l-4.48 0.32a36.096 36.096 0 0 0 0 71.68l4.48 0.256h99.136v63.232H397.376l-4.48 0.256a36.096 36.096 0 0 0 0 71.68l4.48 0.32h99.072v51.968l-26.944-8a224.704 224.704 0 0 0-133.888 1.728l-11.712 4.224-87.104 33.856a361.856 361.856 0 0 1-26.048-374.656 360.192 360.192 0 0 1 320-195.264z" fill="#323232"/></svg>
