<svg viewBox="0 0 24 24" width="48" height="48" xmlns="http://www.w3.org/2000/svg">
  <defs>
    <mask id="tax-scroll-mask">
      <rect width="24" height="24" fill="white" />
      <path fill="black" d="M 9.5 7 L 10.8 7 L 12 9.5 L 13.2 7 L 14.5 7 L 12.6 11 V 12 H 14.5 V 13 H 12.6 V 14 H 14.5 V 15 H 12.6 V 16.5 H 11.4 V 15 H 9.5 V 14 H 11.4 V 13 H 9.5 V 12 H 11.4 V 11 Z" />
      <line x1="16" y1="2" x2="16" y2="8" stroke="black" stroke-width="1.5" />
      <line x1="5" y1="17.5" x2="16" y2="17.5" stroke="black" stroke-width="1.5" stroke-linecap="round"/>
    </mask>
  </defs>
  <g fill="#333333" mask="url(#tax-scroll-mask)">
    <path d="M 8 3 H 17 A 1.5 1.5 0 0 1 18.5 4.5 V 5.5 A 1.5 1.5 0 0 1 17 7 H 16 V 19 A 2 2 0 0 1 14 21 H 7.5 A 2.5 2.5 0 0 1 5 18.5 A 2.5 2.5 0 0 1 7.5 16 H 8 V 3 Z" />
  </g>
</svg>