<svg t="1781772532176" class="icon" viewBox="0 0 1024 1024" version="1.1" xmlns="http://www.w3.org/2000/svg" width="200" height="200"><path d="M512 56.889a142.222 142.222 0 0 1 126.635 207.019h96.483a79.644 79.644 0 0 1 76.97 59.278l139.948 529.92a45.511 45.511 0 0 1-44.09 57.116H116.054a45.511 45.511 0 0 1-44.032-57.116l139.947-529.92a79.644 79.644 0 0 1 76.914-59.222h96.483A142.222 142.222 0 0 1 512 56.89z m0 79.644a62.578 62.578 0 1 0 0 125.156 62.578 62.578 0 0 0 0-125.156z" fill="#323232"/></svg>
